<svg xmlns="http://www.w3.org/2000/svg" xmlns:xlink="http://www.w3.org/1999/xlink" version="1.1" preserveAspectRatio="xMidYMid meet" width="396.4137923096646" height="66.96551203217416" style=""><rect id="backgroundrect" width="396.4137923096646" height="66.96551203217416" x="0" y="0" fill="none" stroke="none" class="" style=""/><defs><path d="M46.05 50.31C47.19 50.53 48.47 51.13 49.22 50.86C49.99 51.21 50.74 50.94 51.75 50.79C51.48 50.04 51.2 49.29 52.07 48.76C52.13 48.72 52.42 48.54 52.94 48.23C52.9 49.52 52.88 50.23 52.88 50.38C53.4 49.93 53.85 49.4 54.23 48.82C55.18 46.77 59.54 48.8 60.37 47.01C60.31 46.95 59.79 46.46 59.72 46.4C57.95 46.28 56.18 46.28 54.41 46.42C54.14 46.54 51.94 47.51 51.66 47.63C51.12 46.12 40.63 46.54 39.25 46.83C38.86 46.33 37.25 43.09 36 43.76C35.51 44.15 34.76 44.42 34.35 43.29C32.09 44.12 26.89 43.25 25.49 42.9C24.43 41.16 20.16 42.29 19.03 42.7C17.15 43.39 16.62 42.51 16.08 41.01C15.55 40.14 16.04 39.75 17.31 39.71C18.04 39.12 19.07 39.09 19.83 39.65C19.95 39.73 20.88 40.41 21 40.5C23.18 38.95 25.93 38.42 28.54 39.03C30.8 38.21 33.32 38.14 35.58 37.32C35.71 37.69 35.85 38.07 36.48 38.05C37.23 37.78 37.47 37.27 38 38.14C38.14 38.16 38.81 38.27 40.03 38.46L44.15 36.33C44.67 36.01 44.96 35.83 45.02 35.8C44.88 35.42 43.87 35.57 43.62 35.45C43 36.1 41.72 35.51 41.06 34.26C40.12 32.26 42.68 28.78 43.39 27.24C42.51 27.76 41.37 27.47 40.85 26.59C40.8 26.5 40.75 26.4 40.71 26.3C40.49 26.32 38.67 26.47 38.44 26.49C37.34 26.24 36.19 26.36 35.16 26.83C35.15 26.2 34.75 25.71 34 25.98C33.25 26.25 32.76 26.65 32.48 25.9C28.81 25.74 25.76 24.94 21.83 24.67C20.58 25.34 17.42 25.42 16.74 23.54C16.54 23.05 16.68 22.49 17.08 22.14C19.08 21.2 24.46 23.71 26.08 22.91C28.45 21.83 29.05 20.55 30.01 23.18C31.75 22.12 33.66 22.7 35.66 21.76C35.93 22.51 36.82 22.62 37.45 22.6C37.46 22.58 37.5 22.5 37.57 22.34C39.88 23.42 41.16 24.01 41.41 24.13C42.28 23.6 44.5 21.52 45.44 23.52C45.7 23.64 46.19 23.24 45.8 22.75C45.34 22.11 44.65 21.67 43.87 21.54C42.88 22.32 41.97 21.59 40.59 21.88C40.4 21.79 39.46 21.35 37.77 20.57L35.66 21.76C34.64 20.73 34.08 20.15 33.97 20.04C31.5 20.74 28.89 20.81 26.38 20.24C24.39 21.18 22.97 20.21 22.17 18.59C21.58 18.57 16.93 18.39 16.34 18.37C15.81 17.5 10.37 17.14 8.98 17.44C8.18 15.81 6.73 18.26 5.79 16.26C4.17 17.06 4.17 17.06 3.23 15.06C3.67 14.86 7.16 13.25 7.6 13.05C9.15 14.4 11.12 12.19 12.67 13.54C12.92 13.53 14.95 13.48 15.2 13.47C15.47 14.22 16.48 14.07 17.23 13.8C17.36 13.73 18.03 13.42 19.23 12.86C22.57 12.92 24.42 12.95 24.79 12.96C25.82 13 26.85 12.84 27.82 12.49C28.09 13.25 28.72 13.23 29.47 12.96C29.7 12.87 31.5 12.22 31.73 12.14C31.45 11.38 29.32 11.95 28.43 11.85C28.67 11.33 28.04 11.35 27.53 11.11C26.66 11.64 26.42 12.15 25.89 11.28C21.57 10.52 16.14 10.79 12.06 9.51C11.27 9.76 10.43 9.32 10.18 8.53C10.15 8.46 10.14 8.38 10.13 8.3C10.14 8.27 10.23 8.07 10.24 8.04C8.74 8.59 0.53 8.81 0 7.94C0.13 7.12 0.69 6.43 1.47 6.13C1.7 6.11 3.51 5.96 3.74 5.94C4.65 5.65 5.63 5.66 6.52 6C8.26 4.94 9.8 5.65 11.68 4.97C13.79 4.8 30.64 3.43 32.75 3.26C33.62 2.73 34.87 2.06 35.53 3.31C36.49 2.64 37.73 2.51 38.81 2.96C40.69 2.28 46.39 2.76 47.41 3.23C47.79 3.18 49.68 2.92 53.08 2.45C54.09 3.1 54.65 3.47 54.76 3.54C58.75 1.66 63.6 3.3 67.61 2.05C68.52 2.31 69.48 2.33 70.4 2.1C70.91 2.06 75.05 1.75 75.57 1.71C75.96 2.2 76.36 2.7 77.23 2.17C78.61 1.88 79.84 0.58 81.75 1.16C82.28 2.03 83.29 1.88 84.16 1.35C86.21 2.3 90.75 1.92 92.88 1.36C92.85 1.74 93.13 2.09 93.51 2.12C93.6 2.13 93.7 2.12 93.79 2.09C93.91 2.03 94.91 1.49 95.04 1.43C95.2 1.16 95.24 0.84 95.14 0.54C98.25 1.41 101.44 1.96 104.67 2.18C106.58 1.84 108.54 2 110.37 2.65C110.5 2.65 111.13 2.63 112.26 2.6C113.85 2.41 114.74 2.3 114.91 2.28C115.94 2.75 116.93 1.97 117.95 2.45C118.23 2.43 119.62 2.35 122.12 2.2L123.36 1.54C124.88 1.5 125.72 1.47 125.89 1.47C126.37 0.45 126.62 0.56 127.39 0.92C128.16 1.28 128.52 0.51 128.76 0C129.69 0.46 130.68 0.82 131.7 1.06C131.96 1.09 134.09 1.33 134.36 1.36C134.73 1.23 135.11 1.09 135.37 1.21C135.38 1.18 135.47 0.98 135.49 0.95C135.74 1.07 136.37 1.06 136.63 1.18C136.91 1.29 137.23 1.17 137.38 0.9C138.05 1.27 138.79 1.5 139.55 1.6C139.81 1.72 140.18 1.59 140.44 1.71C140.56 1.64 141.56 1.11 141.68 1.04C143.58 0.99 145.34 0.56 147.13 1.4C147.25 1.14 152.18 1.26 152.7 1.5C156.86 1.97 161.06 1.94 165.21 1.41C165.64 1.65 166.12 1.77 166.61 1.75C166.71 1.73 167.52 1.61 167.62 1.6C167.76 1.97 167.76 1.97 168.01 2.09C168.82 2.27 169.64 1.88 170.01 1.15C171.29 1.75 172.27 0.33 173.55 0.93C173.8 0.92 175.82 0.86 176.07 0.86C177.86 1.69 178.96 0.02 180.75 0.86C183.18 1.34 185.64 1.66 188.11 1.79C189.13 2.27 189.49 1.5 190.52 1.98C190.86 1.11 191.84 0.68 192.71 1.02C192.92 1.11 193.12 1.24 193.28 1.4C193.87 1.48 198.54 2.17 199.12 2.25C200.18 2.08 201.2 1.71 202.13 1.16C202.39 1.19 204.53 1.43 204.79 1.46C204.67 1.72 204.43 2.23 204.95 2.47C205.2 2.59 206.07 2.06 206.45 1.92C210.55 3.84 217.07 1.89 221.25 2.28C221.97 0.74 223.27 1.97 224.29 2.45C224.29 2.45 232.27 2.74 232.78 2.97C233.23 2.94 236.86 2.64 237.32 2.6C239.11 3.43 239.95 1.64 241.74 2.48C242.51 2.84 247.72 3.7 248.47 3.43C248.68 3.44 250.41 3.49 250.62 3.5C251.22 2.22 252.36 2.44 253.27 3.17C255.04 3.38 258.48 4.04 260.23 3.62C260.3 3.56 260.63 3.3 261.22 2.83C262.82 3.01 263.71 3.12 263.89 3.14C263.89 3.14 263.53 3.9 263.79 4.02C264.3 4.26 264.91 3.61 265.29 3.48C269.13 5.27 274.64 3.47 278.83 3.87C279.43 2.59 280.96 3.3 281.61 3.92C281.99 3.78 294.54 4.95 295.3 5.31C296.91 3.88 299.27 6.85 300.87 5.41C302.66 6.25 307.05 4.87 308.85 5.7C308.98 5.67 310.09 5.44 310.23 5.41C313.56 6.96 316.19 6.01 319.52 7.56C319.73 7.57 321.45 7.62 321.67 7.63C322.03 6.86 328.34 6.69 329.37 7.16C329.97 5.88 332.27 6.96 332.92 7.57C333.91 7.4 334.94 7.55 335.84 8C335.95 7.99 336.5 7.93 337.48 7.83L338.73 7.16L347.74 8.56C348.44 9.07 348.83 9.36 348.9 9.41C349.62 9.86 350.54 9.79 351.17 9.22C351.49 9.22 354.02 9.15 354.33 9.14C355.87 9.85 355.58 8.47 357.88 9.55C358.65 9.9 359.54 10.01 359.9 9.24C361.69 10.07 363.33 9.9 365.12 10.74C370.14 9.34 380.52 9.81 385.14 11.96C385.85 10.43 387.66 11.89 388.69 12.37C388.96 12.38 391.19 12.42 391.47 12.42C392.29 12.83 393.24 12.94 394.13 12.73C394.33 12.76 395.3 12.9 397.05 13.16C396.99 13.69 396.96 13.98 396.95 14.04C396.71 14.56 396.08 14.57 395.57 14.33C393.86 14.97 391.97 14.98 390.26 14.35C389.39 14.88 388.36 14.4 387.59 14.05C385.6 14.99 382.32 15.33 380.3 15.64C378.68 16.44 376.55 17 375.01 16.29C374.93 16.33 374.51 16.55 373.76 16.95C372.53 16.38 371.85 16.06 371.71 16C370.73 16.39 369.62 16.33 368.68 15.83C368.49 15.96 367 17.01 366.82 17.14C365.79 16.66 364.39 16.32 363.52 16.85C362.24 16.25 359.37 17.72 358.13 18.39C358.05 18.35 357.44 18.07 357.36 18.03C357.24 18.29 358.54 19.52 358.79 19.64C359.03 19.65 360.96 19.8 361.2 19.82C362.23 20.3 362.74 20.54 362.26 21.56C362.24 21.62 362.12 21.87 361.9 22.33C360.21 21.54 359.27 21.11 359.08 21.02C358.25 22.81 355.98 23 355.14 24.79C349.06 24.45 347.49 22.47 342.92 26.27C342.58 26.11 339.92 24.87 339.59 24.71C338.22 25.64 336.09 26.2 334.55 25.48C333.59 27.53 329.82 23.59 328.74 25.89C329.77 26.37 329.55 27.52 330.57 27.99C331.34 28.35 332.48 28.57 333.1 27.92C333.61 28.16 336.57 29.85 337.04 28.83C337.68 28.81 343.52 29.66 342.68 31.46C342.92 31.47 344.85 31.62 345.09 31.64C345.98 31.18 346.97 30.89 347.97 30.81C348.13 30.88 348.9 31.24 350.28 31.88L352.4 30.69L354.96 31.88L356.72 31.45L356.24 32.48C358.06 32.58 359.07 32.64 359.28 32.65C359.48 35.55 360.78 32.1 361.14 31.33C361.5 30.56 362.13 30.55 362.9 30.91C364.4 30.36 367.1 31.93 368.99 31.88C368.98 32.04 368.92 32.84 368.8 34.28C366.99 34.56 365.98 34.72 365.78 34.75C365.02 34.4 364.13 34.74 363.79 35.5C363.73 35.64 363.68 35.79 363.67 35.94C362.65 35.4 361.46 35.3 360.37 35.65C360.16 35.56 358.53 34.79 358.32 34.7C356.94 35.28 355.36 35.24 354.02 34.56C353.86 34.59 353.06 34.74 351.63 35.01C349.64 34.45 348.53 34.15 348.31 34.09C347.76 34.22 347.28 34.55 346.95 35.01C346.35 36.29 350.26 35.93 351.03 36.29C350.96 36.44 350.6 37.21 349.95 38.59C349.41 38.15 349.11 37.91 349.05 37.86C348.28 37.5 347.67 38.15 347.43 38.66C346.51 38.93 345.66 39.38 344.94 40C344.77 39.98 343.97 39.92 342.53 39.81L341.08 42.25C340.48 42.72 340.15 42.98 340.09 43.04C339.61 44.06 338.96 43.45 338.19 43.09C337.94 42.97 337.56 43.1 337.18 43.24C336.81 43.38 335.03 43.17 334.91 43.43C334.79 43.69 335.31 43.92 335.31 43.92C337.61 45 340.24 44.04 342.29 45C342.69 45.12 342.91 45.54 342.79 45.93C342.77 46 342.74 46.07 342.7 46.13C342.81 46.26 343.33 46.92 344.27 48.11C342.85 48.75 342.06 49.11 341.9 49.18C340.62 48.58 339.89 49.49 338.35 48.77C338.3 48.88 337.92 49.69 337.87 49.8C336.91 51.85 335.27 47.34 333.72 50.67C332.03 51.07 330.39 51.67 328.84 52.45C326.79 51.49 324.91 52.17 322.9 52.48C326.25 54.67 327.75 54.12 329.8 55.08C329.74 55.19 329.46 55.79 328.96 56.87C327.25 58.13 326.3 58.83 326.11 58.97C325.97 58.59 325.82 57.59 325.56 57.47C325.05 57.23 324.69 58 324.57 58.25C323.98 58.19 319.21 57.72 318.61 57.66C316.84 58.02 315.12 58.57 313.47 59.31C311.44 58.99 309.43 59.3 307.63 58.46C305.6 58.14 301.56 58.12 299.56 59.06C299.18 58.95 297.26 58.37 293.82 57.32L291.94 58.01L292.75 59.63L293.65 60.36C296.69 60.66 298.38 60.82 298.72 60.85C298.84 60.6 299.44 59.32 299.95 59.56C300.21 59.68 300.23 60.31 300.36 60.68C300.54 60.7 301.43 60.81 303.03 60.99C303.74 62.26 304.14 62.97 304.22 63.11C302.25 63.29 300.26 62.9 298.5 62C298.47 62.2 298.21 63.83 298.17 64.03C296.89 63.43 296.48 62.31 295.2 61.71C292.81 62.16 289.91 62.36 287.61 61.29C286.32 60.69 287.4 58.38 287.88 57.36C287.94 57.23 288.41 56.21 288.47 56.08C291.92 57.37 295.8 55.75 299.47 55.9C299.47 55.9 300.24 56.26 300.36 56.01C299.83 55.4 299.27 54.82 298.67 54.28C298.07 55.56 294.64 54.9 293.49 54.68C290.85 55 287.94 55.21 285.18 55.79C283.13 54.83 281.27 56.15 279.48 55.31C279.47 55.46 279.45 56.17 279.41 57.46L281.68 57.27C282.78 58.53 283.39 59.23 283.51 59.37C284.26 59.1 286.02 58.67 285.3 60.21C285.3 60.21 285.81 60.45 285.69 60.71C285.57 60.96 282.28 60.67 281.65 60.69C281.61 60.73 281.4 60.95 281.03 61.34C281.8 61.7 282.23 61.9 282.31 61.94C281.12 64.5 279.67 62.26 278.95 63.8C278.8 63.75 278.08 63.52 276.78 63.1L275.35 61.49L274.08 61.53L272.84 62.19L272.56 61.44L268.26 61.31L268.17 62.83C266.48 62.04 265.54 61.6 265.36 61.51C264.64 63.05 264.38 62.93 262.85 62.21C262.37 63.24 261.6 62.88 260.83 62.52C259.81 62.04 258.82 62.83 257.79 62.35C257.8 62.33 257.84 62.25 257.91 62.1C256.47 61.98 255.67 61.92 255.5 61.91C254.48 61.43 253.49 62.22 252.47 61.74C250.43 61.42 245.87 61.16 243.76 62.36C243.52 62.24 242.32 61.69 240.17 60.68L239.32 61.85C237.43 62.28 236.39 62.51 236.18 62.56C236.42 63.02 236.78 63.4 237.22 63.67C239.11 63.51 241.02 63.76 242.8 64.41C242.92 64.15 243.64 62.61 244.15 62.85C244.41 62.97 244.42 63.6 244.56 63.98C244.76 64.01 245.73 64.15 247.48 64.41C248.35 65.75 248.84 66.49 248.93 66.64C247.17 67.07 244.37 66.39 242.58 65.55C242.95 66.25 243.02 67.07 242.77 67.82C242.41 68.59 239.54 65.38 239.03 65.14C236.26 65.72 233.62 66.05 230.8 64.73C230.73 64.56 230.42 63.68 229.84 62.1L228.46 62.4C228.33 63.08 228.25 63.46 228.24 63.54C228.24 63.54 229.01 63.9 228.89 64.15C228.53 64.92 224.98 64.51 224.21 64.15C223.01 66.72 212.97 64.84 211.45 64.76C211.27 64.48 209.79 62.3 209.61 62.02C209.03 62.01 208.46 61.85 207.95 61.56C208.83 63.01 209.35 64.64 209.47 66.33C209.19 66.2 206.94 65.14 206.66 65.01C205.82 66.81 205.56 66.69 203.77 65.85C203.53 66.36 199.23 66.23 198.46 65.87C198.19 65.12 197.78 63.99 197.26 63.75C196.75 63.51 196.51 64.03 196.39 64.28C195.78 64.93 194.72 63.19 195.73 63.04C195.47 62.92 193.54 61.7 193.05 62.1C192.68 62.09 190.82 62.06 187.48 62L187.36 62.25L181.68 62.41L178.99 61.47C177.96 62.48 177.39 63.05 177.27 63.16C177.78 63.4 180.21 64.22 179.73 65.24C179.49 65.76 178.6 65.65 178.09 65.41C175.86 65.92 173.56 66.11 171.28 65.98C170.25 65.5 169.64 66.15 168.61 65.67C166.24 66.75 161.8 66.24 159.51 65.8C159.27 66.31 158.76 66.07 158.51 65.95C157.74 65.59 155.53 63.63 156.01 62.6C156.13 62.35 156.9 62.71 157.16 62.83C157.43 62.83 159.66 62.87 159.94 62.88C160.88 63.38 161.99 63.44 162.98 63.05C164.82 64 166.95 64.21 168.94 63.64C168.91 63.34 168.79 61.83 168.56 59.1C168.41 59.03 168.32 58.99 168.3 58.98C168.05 58.86 167.19 60.02 167.07 60.28C166.36 61.82 165.04 59.96 164.77 59.2C164.68 59.19 163.97 59.11 163.88 59.1C162.69 61.66 162.82 62.04 160.52 60.96C158.72 60.13 152.88 59.28 150.85 58.95C150.7 58.97 149.94 59.03 148.58 59.14L148.38 60.92C152.75 62.77 155.18 63.8 155.67 64.01C154.59 66.31 150.97 63.38 150.14 65.17C149.59 65.2 145.25 65.42 144.71 65.44C142.66 64.49 141.31 66.04 139.52 65.21C139.38 65.27 138.72 65.58 137.52 66.15L134.48 65.98L131.73 67.19C129.89 66.33 128.86 65.85 128.66 65.76C126.76 65.81 124.24 65.88 122.7 65.16C122.62 65.2 122.2 65.43 121.45 65.82L115.39 66.12L112.45 65.06C112.24 65.52 112.12 65.78 112.1 65.83C111.62 66.85 110.73 66.75 109.96 66.39C109.37 66.8 108.63 66.91 107.95 66.7C107.69 66.58 107.81 66.32 107.93 66.07C107.8 65.82 106.73 63.82 106.6 63.58C104.8 62.74 102.79 63.05 101 62.21C100.71 62.83 100.04 63.16 99.37 63.01C99.35 63.07 99.16 63.48 99.14 63.53C98.64 63.92 98.38 63.8 98.25 63.42C98.26 63.4 98.35 63.19 98.37 63.17C97.35 62.94 96.36 62.58 95.43 62.11C95.19 62.62 90.26 62.5 89.25 62.66C86.43 61.34 84.21 63.43 81.91 62.35C81.69 62.38 80.6 62.49 78.63 62.7L77.86 62.34C77.72 62.65 77.64 62.82 77.62 62.85C75.37 63.67 71.82 63.26 69.07 64.48C68.77 64.44 67.29 64.27 64.63 63.96L63.69 61.97L64.54 60.8L61.48 60C61.6 58.56 61.66 57.76 61.67 57.6C63.46 58.43 65.6 57.87 67.36 57.44C66.58 57.4 65.81 57.25 65.07 57C64.84 57.02 63.03 57.17 62.8 57.19C62 55.56 57.52 58.47 56.72 56.85C56.21 56.61 55.2 56.76 54.94 56.64C55.22 56.23 55.69 55.98 56.19 55.98C56.36 55.97 57.2 55.95 58.72 55.91L59.84 55.5L57.54 54.42C56.1 54.69 55.31 54.84 55.15 54.87C54.91 55.38 53.65 55.41 52.62 54.93C51.49 55.34 48.87 56.3 48.34 55.43C48.32 54.8 49.05 53.89 49.15 53.01C48.04 53.31 46.85 53.3 45.74 52.97C45.34 52.85 45.12 52.44 45.24 52.04C45.26 51.97 45.29 51.91 45.33 51.85C45.3 51.71 45.07 50.6 45.04 50.46C44.03 50.62 43.26 50.26 42.14 50.67C42.2 50.39 42.75 48.15 42.82 47.87C43.75 48.31 44.86 48.23 45.72 47.66C46.26 48.44 46.38 49.43 46.05 50.31ZM139.74 59.38C137.43 58.31 133.69 60.31 131.39 59.23C130.62 58.87 129.59 58.4 128.72 58.92C128.45 58.92 126.22 58.88 125.94 58.87C123.89 57.92 121.89 58.86 119.88 59.17C119.29 59.05 118.7 58.98 118.1 58.96C118.12 59.01 118.21 59.26 118.38 59.71C117.56 60.27 117.1 60.57 117.01 60.64C116.64 60.77 116.26 60.91 116 60.79C117.79 61.12 119.54 61.62 121.23 62.29C121.55 62.28 124.07 62.21 124.39 62.2C124.87 61.18 125.12 61.3 126.15 61.78C126.66 62.02 127.15 61.62 127.51 60.85C128.48 60.93 136.18 61.53 137.14 61.6C137.62 60.58 138.27 61.19 139.04 61.55C139.55 61.79 139.79 61.28 140.03 60.77C141.57 61.48 145.22 61 146.57 59.45C146.39 59.37 144.95 58.7 144.77 58.61C143.52 58.77 142.25 58.81 140.98 58.72C140.73 58.85 139.99 59.25 139.74 59.38ZM192.8 57.93C192.67 57.56 193.04 57.42 193.18 57.8C193.19 57.69 193.21 57.19 193.26 56.28L191.47 55.44L191.23 55.95L188.31 55.53C186.81 55.95 185.97 56.18 185.8 56.23C185.79 55.6 184.28 56.14 184.56 56.89C183.47 57.25 182.28 57.14 181.26 56.6C179.9 56.61 178.54 56.82 177.23 57.22C177.11 57.18 176.47 56.99 175.32 56.64L175.61 58.02C175.41 58.86 175.29 59.33 175.27 59.42C176.49 59.16 177.75 59.21 178.94 59.58C178.92 59.41 178.79 58.1 178.77 57.94C179.64 57.41 185.48 58.26 186.51 58.74C186.9 58.7 190.02 58.41 190.41 58.38C190.41 58.38 191.68 58.34 191.54 57.97C191.79 57.96 192.68 57.94 192.8 57.93ZM297.17 27.39C298.42 26.72 303.51 27.85 305.03 27.93C305.46 26.89 305.11 25.69 304.19 25.05C301.63 24.81 299.05 24.75 296.47 24.88C296.61 25.38 297.1 27.14 297.17 27.39ZM269.23 55.21C270.67 56.82 272.58 57.4 274.37 58.23C275 57.67 275.93 57.6 276.64 58.04C276.67 58.16 276.81 58.75 277.07 59.8L277.96 59.91C278 58.62 278.02 57.9 278.02 57.76C277.63 57.26 277.36 56.51 276.85 56.27C276.33 56.03 276.09 56.54 275.97 56.8C274.97 56.36 274.12 55.63 273.51 54.72C272.66 54.82 270.09 55.11 269.23 55.21ZM59.27 20.61C58.4 21.14 56.81 18.53 54.44 19.61C54.18 19.71 52.89 20.26 50.56 21.23L50.34 22.37L52.75 22.56L55.62 21.09L58.06 22.54L58.18 22.29C58.76 21.39 59.12 20.84 59.27 20.61ZM231.27 59.03C231.39 58.78 231.12 58.02 230.75 58.16C230.47 58.22 228.26 58.68 227.98 58.74C225.93 57.79 223.95 59.36 221.9 58.4C221.83 58.56 221.25 59.78 221.18 59.94C222.31 59.53 224.09 59.73 225.35 59.7C226.94 60.25 228.62 60.51 230.3 60.45C230.5 60.16 231.08 59.31 231.27 59.03ZM307.11 25.47L308.58 28.34C310.62 27.98 311.75 27.78 311.98 27.74C311.96 27.11 311.91 25.22 311.4 24.98C311.14 24.86 310.66 25.88 310.66 25.88C310.19 25.83 309 25.69 307.11 25.47ZM303.41 42.77C303.15 42.65 302.13 42.17 301.89 42.69C301.77 42.94 303.19 43.92 303.44 44.04C305.99 44.07 308.53 43.79 311.01 43.2C309.73 42.6 308.34 42.89 307.06 42.29C306.04 43.14 304.62 43.32 303.41 42.77ZM328.48 57.89C330.53 58.85 332.9 57.77 334.95 58.73C333.88 61.03 332.68 58.92 331.96 60.45C331.82 60.41 331.1 60.17 329.79 59.75C329.09 58.76 328.66 58.14 328.48 57.89ZM217.84 62.43L220.26 63.25L220.74 62.23C219.86 60.51 219.37 59.55 219.27 59.36C218.5 59 217.79 60.54 218.67 60.64C218.52 60.7 217.77 60.97 216.42 61.46L217.84 62.43ZM312.77 42.77C313.28 43.01 314.18 43.74 313.83 44.51C314.03 44.42 315.62 43.66 315.82 43.57C315.94 43.31 316.64 41.15 316.39 41.03C316.13 40.91 315.53 42.19 315.53 42.19C315.51 42.18 315.3 42.08 315.28 42.07C313.74 41.35 312.1 41.52 311.38 43.06C311.66 43 312.49 42.83 312.77 42.77ZM244.42 58.93C244.54 58.67 242.99 57.32 242.73 57.2C242.25 58.23 240.22 57.9 238.45 57.7C238.4 57.8 238.02 58.62 237.97 58.72C239.25 59.32 242.15 59.11 243.53 58.82C243.79 58.94 244.3 59.18 244.42 58.93ZM301.23 55.48C302.51 56.07 303.89 55.78 305.17 56.38C305.89 54.84 308.04 54.91 309.44 55.25C309.23 55.09 307.58 53.82 307.37 53.66C306.55 54.08 305.9 54.77 305.53 55.61C304.25 55.01 302.06 53.68 301.23 55.48ZM109.6 62.48C109.89 62.53 112.23 62.87 112.52 62.91C112.25 62.31 112.23 61.63 112.47 61.01C111.21 61.17 109.94 61.21 108.68 61.12C108.44 61.63 107.71 62.53 108.22 62.77C108.47 62.89 109.23 62.62 109.6 62.48ZM212.87 56.37C212.61 56.25 212.49 56.51 212.24 56.39C212.21 56.48 212.1 56.95 211.89 57.79C214.88 58.62 216.53 59.08 216.86 59.17C216.17 58.21 215.23 57.45 214.15 56.97C213.89 56.85 213 56.43 212.87 56.37ZM195.21 58.12C197.11 58.07 198.16 58.04 198.37 58.03C199.18 58.49 200.14 58.6 201.04 58.34C199.26 58.14 196.82 56.69 195.28 55.97C195.27 56.26 195.25 56.97 195.21 58.12ZM93.57 58.75C93.05 58.51 92.56 58.9 92.32 59.41C92.2 59.36 91.6 59.08 90.53 58.58L90.95 60.34C92.7 60.21 93.66 60.14 93.86 60.13C93.86 60.13 94.37 60.37 94.49 60.11C94.73 59.6 94.08 58.99 93.57 58.75ZM250.23 58.51L248.95 57.92L248.84 58.8L249.87 59.28L252.62 58.07L252.09 57.2L251.06 56.72L250.23 58.51ZM287.37 25L285.24 25.57C285.86 26.23 286.21 26.6 286.28 26.68C287.3 27.15 287.42 26.9 287.9 25.87C287.92 25.84 288 25.67 288.14 25.36L287.37 25ZM171.07 60.58C171.12 60.62 171.19 60.65 171.26 60.67C172.24 60.99 173.29 61.05 174.3 60.84C174.25 60.8 174.04 60.6 173.65 60.23C172.35 59.81 171.62 59.57 171.48 59.53C171.36 59.78 171.1 59.66 170.85 59.54C170.62 59.89 170.72 60.36 171.07 60.58ZM208.07 56.63L207.08 57.42L207.59 57.65L209.23 57.48L210.34 56.44L208.07 56.63ZM245.55 58.52C246.32 58.87 247.34 59.35 248.21 58.82C248.08 58.76 247.39 58.44 246.16 57.87C245.84 58.21 245.63 58.43 245.55 58.52ZM89.25 57.98L87.49 58.41C87.03 58.19 86.77 58.07 86.72 58.05C86.6 58.31 87.37 58.66 87.37 58.66C87.42 58.69 87.68 58.81 88.14 59.02L89.76 58.22L89.25 57.98ZM213.14 61.8C211.55 62 210.67 62.11 210.5 62.13C211.22 62.44 212 62.59 212.78 62.57C212.83 62.47 212.95 62.21 213.14 61.8ZM321.78 25.45C322.72 26.64 323.24 27.3 323.35 27.43C323.59 26.92 323.83 26.41 323.06 26.05C322.89 25.97 322.46 25.77 321.78 25.45ZM101.03 58.8C102.29 58.89 103.56 58.85 104.82 58.69C103.85 58.63 102.91 58.4 102.02 58.01C101.82 58.17 101.13 58.72 101.03 58.8ZM317.77 26.7C317.66 26.98 317.77 27.31 318.04 27.45C318.3 27.57 318.81 27.81 319.05 27.3C319.17 27.04 318.52 26.43 318.26 26.31C318.14 26.56 317.89 26.44 317.77 26.7ZM97.51 59.65C97.27 60.16 97.15 60.42 97.67 60.66C97.92 60.78 98.18 60.9 98.3 60.64C98.32 60.59 98.51 60.18 98.54 60.13C98.4 59.75 98.14 59.63 97.63 59.39C97.61 59.45 97.52 59.62 97.51 59.65ZM161.54 56.76C161.66 56.51 161.9 55.99 161.64 55.88C161.13 55.64 160.4 56.54 160.28 56.8C160.53 56.79 161.41 56.77 161.54 56.76ZM126.78 57.08C127.14 56.31 126.74 55.82 125.97 55.46C125.96 55.45 125.87 55.41 125.72 55.34C126.28 56.27 126.64 56.85 126.78 57.08ZM312.21 54.67C312.46 54.79 312.98 55.03 313.21 54.52C313.33 54.26 312.68 53.65 312.43 53.53C312.38 53.76 312.23 54.56 312.21 54.67ZM328.94 42.2C328.96 42.15 329.15 41.74 329.18 41.69C329.41 41.18 328.9 40.94 328.65 40.82C328.41 41.33 328.42 41.96 328.94 42.2ZM354.99 19.11C355.27 19.22 355.59 19.1 355.74 18.83C355.86 18.58 355.46 18.08 355.21 17.96C355.16 18.19 355.01 18.99 354.99 19.11ZM254.75 57.5C254.12 57.52 253.74 57.66 253.51 58.17C253.76 58.29 254.14 58.15 254.39 58.27C254.46 58.12 254.72 57.58 254.75 57.5ZM352.9 19.07C352.96 19.11 353.02 19.14 353.09 19.16C353.1 19.13 353.2 18.93 353.21 18.9C353.45 18.39 352.94 18.15 352.68 18.03C352.45 18.38 352.55 18.84 352.9 19.07ZM338.62 40.17C338.99 39.78 339.19 39.56 339.23 39.52C339.35 39.26 338.84 39.02 338.58 38.9C338.58 38.9 338.59 39.32 338.62 40.17ZM226.19 62.58C226.67 62.8 227.21 62.83 227.71 62.67C227.28 62.42 226.8 62.3 226.31 62.33C226.28 62.38 226.21 62.53 226.19 62.58ZM115.61 60.29C115.5 60.34 114.6 60.66 114.48 60.7C114.98 60.81 115.5 60.84 116 60.79C115.63 60.93 115.75 60.67 115.61 60.29ZM171.15 56.88C171.01 57.19 170.93 57.36 170.92 57.39C171.33 57.51 171.77 57.5 172.18 57.36C172.04 57.29 171.7 57.14 171.15 56.88ZM133.37 57.66L134.26 57.76L133.23 57.29L133.37 57.66ZM257.64 56.67C258.1 56.88 258.35 57 258.41 57.02C258.29 56.73 258.05 56.51 257.76 56.41C257.74 56.44 257.7 56.53 257.64 56.67ZM279.83 26.47C279.98 26.54 280.06 26.58 280.08 26.59C280.34 26.71 280.71 26.58 281.09 26.44C280.92 26.44 280.5 26.45 279.83 26.47ZM110.92 59.66C111.28 59.28 111.49 59.06 111.53 59.02C111.47 59.16 111.31 59.22 111.17 59.16C111.16 59.16 111.16 59.15 111.15 59.15C111.12 59.22 111.04 59.39 110.92 59.66Z" id="a1kUaqhpx"/></defs><g class="currentLayer" style=""><title>Layer 1</title><g id="svg_1" class=""><g id="svg_2"><g id="svg_3"><use xlink:href="#a1kUaqhpx" opacity="1" fill="#464770" fill-opacity="1" id="svg_4"/><g id="svg_5"><use xlink:href="#a1kUaqhpx" opacity="1" fill-opacity="0" stroke="#000000" stroke-width="1" stroke-opacity="0" id="svg_6"/></g></g></g></g></g></svg>