<svg xmlns="http://www.w3.org/2000/svg" width="179.993" height="160.937" viewBox="0 0 179.993 160.937">
  <g id="Group_1" data-name="Group 1" transform="translate(-97.304 -331.349)">
    <path id="path124" d="M522.418,291.917l3.145,8.146a126.759,126.759,0,0,0-1.167,13.614c0,5.275.659,20.441.659,20.441v5.275l4.616,4.616,7.253,1.978,4.616,5.275.659,26.376-6.594,5.935,1.978,11.21-2.638,4.616h-5.935l7.253,13.188,9.891-10.55,18.454.75s7.833,3.114,11.175-.8a71.642,71.642,0,0,0,4.66-5.888l6.594-.659,7.913,5.935-.5,7.024,16.981,18.033,15.46-4.157,13.554-24.2,4.616.659,3.3-4.616-5.275-5.935,5.632-7.7,6.237,3.082,8.572-9.232,6.594,1.319.659-7.913,8.572-5.935,10.55-.659s4.616-9.891,1.319-13.847a88.258,88.258,0,0,1-7.253-11.21s2.638-7.913-3.3-6.594-20.038,3.755-20.038,3.755L656.276,315s-18.463,1.319-22.42-.659a19.689,19.689,0,0,1-6.594-5.935l-5.935-6.594,5.935-4.616-11.869-3.956,1.978-5.935-10.058-8.044-12.361-9.76-8.572,16.485-6.594-1.319,3.936-12.842-17.783.313-1.681,13.726L547.475,284l-3.956,8.572-9.232-2.638Z" transform="translate(-415.114 65.852)" fill="#90d8e0" fill-rule="evenodd"/>
    <path id="path124-2" data-name="path124" d="M522.418,291.917l3.145,8.146a126.759,126.759,0,0,0-1.167,13.614c0,5.275.659,20.441.659,20.441v5.275l4.616,4.616,7.253,1.978,4.616,5.275.659,26.376-6.594,5.935,1.978,11.21-2.638,4.616h-5.935l7.253,13.188,9.891-10.55,18.454.75s7.833,3.114,11.175-.8a71.642,71.642,0,0,0,4.66-5.888l6.594-.659,7.913,5.935-.5,7.024,16.981,18.033,15.46-4.157,13.554-24.2,4.616.659,3.3-4.616-5.275-5.935,5.632-7.7,6.237,3.082,8.572-9.232,6.594,1.319.659-7.913,8.572-5.935,10.55-.659s4.616-9.891,1.319-13.847a88.258,88.258,0,0,1-7.253-11.21s2.638-7.913-3.3-6.594-20.038,3.755-20.038,3.755L656.276,315s-18.463,1.319-22.42-.659a19.689,19.689,0,0,1-6.594-5.935l-5.935-6.594,5.935-4.616-11.869-3.956,1.978-5.935-10.058-8.044-12.361-9.76-8.572,16.485-6.594-1.319,3.936-12.842-17.783.313-1.681,13.726L547.475,284l-3.956,8.572-9.232-2.638Z" transform="translate(-425.114 61.852)" fill="#ab5451" fill-rule="evenodd"/>
    <path id="path124-3" data-name="path124" d="M522.418,291.917l3.145,8.146a126.759,126.759,0,0,0-1.167,13.614c0,5.275.659,20.441.659,20.441v5.275l4.616,4.616,7.253,1.978,4.616,5.275.659,26.376-6.594,5.935,1.978,11.21-2.638,4.616h-5.935l7.253,13.188,9.891-10.55,18.454.75s7.833,3.114,11.175-.8a71.642,71.642,0,0,0,4.66-5.888l6.594-.659,7.913,5.935-.5,7.024,16.981,18.033,15.46-4.157,13.554-24.2,4.616.659,3.3-4.616-5.275-5.935,5.632-7.7,6.237,3.082,8.572-9.232,6.594,1.319.659-7.913,8.572-5.935,10.55-.659s4.616-9.891,1.319-13.847a88.258,88.258,0,0,1-7.253-11.21s2.638-7.913-3.3-6.594-20.038,3.755-20.038,3.755L656.276,315s-18.463,1.319-22.42-.659a19.689,19.689,0,0,1-6.594-5.935l-5.935-6.594,5.935-4.616-11.869-3.956,1.978-5.935-10.058-8.044-12.361-9.76-8.572,16.485-6.594-1.319,3.936-12.842-17.783.313-1.681,13.726L547.475,284l-3.956,8.572-9.232-2.638Z" transform="translate(-420.114 63.852)" fill="#fff" fill-rule="evenodd"/>
    <path id="Path_4" data-name="Path 4" d="M11.2-16.333c0,.467-.267.867-.267,1.333-.667,0-.467.267-.467.8,0,.467-1,1.4-1,1.933A.244.244,0,0,0,9.733-12c.467,0,.733-.733.733-1.133A22.98,22.98,0,0,0,11.8-15.267c.2,0,.2-.133.2-.333,0-.133.133-.2.267-.2a.856.856,0,0,1,.267-.667l.2-.6a.4.4,0,0,0,.4-.533c.267.333.733,1.267,1.333,1.267.267,0,.533-.2.467-.467.067-.067.133-.267.267-.267.067,0,.067.2.067.2v1.133l-.333.467c-.2,0-.133.133-.133.333,0,.133-.133.133-.267.133,0,.533-.267,1.067-.267,1.6a2.719,2.719,0,0,0-.467,1.867l-.267.2c-.2.067-.267.333-.267.533,0,.267,0,.4.267.4.333,0,.6-.067.6-.467,0-.333.2-1.333.667-1.333.2-.4,1-1.467,1-2,.267,0,.267-.133.267-.333,0-.267.8-.333,1-.333,0-.4.933-2.8,1.333-2.733v-.667a6.489,6.489,0,0,1,.733-1.533.337.337,0,0,1,.467-.333l.067-1,.467-.2c.267,0,.267-.133.267-.333a.177.177,0,0,1,.2-.2l.067-.533.267-.2a2.2,2.2,0,0,0,.467-.867l.267-.2.733-1.267.333.733a6.124,6.124,0,0,0-1.067,1.8L21.4-22v.467l.267.267L21.4-21l-.133.867-.333.4v1.6l-.267.6c0,.067,0,.267.067.267s.133-.267.2-.333c.4,0,.267-1.267.667-1.267a4.457,4.457,0,0,0,.333-1.267c.6,0,0-1.267.8-1.267l.467-1.267c.533,0,.533-1.2.533-1.533l.467-.4c0-.2.067-.467.267-.533A1.392,1.392,0,0,1,25-26.2c0-.933.733-1.733.733-2.667L26-29.2c0-.133-.067-.867.133-.867.133,0,.133.267.133.333,0,.467.267.067.333-.067l.2.667a2.076,2.076,0,0,1-.467.6c-.4,0-.333.2-.333.533,0,.533-.467.933-.467,1.467a1.394,1.394,0,0,0,.867.467c.067,0,.133-.067.133-.2-.133-.067-.533-.267-.533-.467,0-.067.2-.067.267-.067,0-.867,1.067-2.067,1.067-3.267.2,0,.267-.067.267-.267l-.067-.467-.467-.067v-.467l.267-.2V-32a1.286,1.286,0,0,0,.2-.667c-.133-.067-.533-.267-.533-.4,0-.067.2-.067.267-.067.2-.6.533-1.2.8-1.8,0-.4.267-1,.733-1,0-.4-.267-1.6.533-1.4,0-.4.267-.333.267-.667a3.035,3.035,0,0,0,.533-1.267l.2.067a.244.244,0,0,0,.267-.267c-.133-.133-.467-.333-.467-.533,0-.067.133-.067.2-.067a8.019,8.019,0,0,0,1.2-1.733c.067-.267.2-1,.533-1.067.067-.467-.133-1.533.6-1.333.267-1.133.733-2.2,1-3.333a.856.856,0,0,0,.267-.667c.267,0,.267-.133.267-.333a.177.177,0,0,1,.2-.2l.533-1.333c0-.467.8-.667.8-1.2A.911.911,0,0,0,36-52c0-.267-.2-.4-.467-.4a1.947,1.947,0,0,0-.6.133c0,.533,0,1.467-.467,1.467-.067,0-.267-.533-.267-.6,0-.6.467-1.067.467-1.667l.533-1.2-.467-.6c-.333,0-.2.267-.533.267a.911.911,0,0,1-.267-.733l-.667-.267A9.842,9.842,0,0,1,32.2-53.8l-.533.267c-.867,0,.4-.8-2.067-.8V-54.6c0-.467-1.667-.467-2.133-.533-.733-.133-.067-.933-.867-.933-2.133,0-.6.933-2,.933l-.4.533c-.4,0-.4,1.067-1,1.067,0,.533-.467.733-.467,1.267A1,1,0,0,1,22-52l-.067.8a5.518,5.518,0,0,0-.733,1c0,.333-.067,1.2-.533,1.2,0,.4-.267.533-.267.867a.446.446,0,0,0-.267.467c-.2,0-.267.067-.267.267s-.133.2-.267.2a1.126,1.126,0,0,1-.2.667c0,.6-.533,1-.533,1.6l-.2.4L18.4-44.4a.911.911,0,0,1-.267.733c0,.533-.8,1.333-.8,1.867a4.127,4.127,0,0,1-.733,1.133c0,.267-.267.4-.267.667L15.8-38.8a11.023,11.023,0,0,1-1.267,3.6c0,.267-.267.4-.267.667a3.022,3.022,0,0,0-.733,1.267c0,.333-.067,1.133-.533,1.133,0,.467-.267.4-.267.733-.267,0-.2.133-.2.333a.177.177,0,0,1-.2.2,5.079,5.079,0,0,1-.867,1.933c0,.2-.067.467-.267.533-.333.267-.2.667-.2,1.067,0,.2-.133.267-.333.267l-.467,1.2a.724.724,0,0,1-.267.6c-.133,1-.867,1.867-.867,2.867l-.4.333V-20.8A7.161,7.161,0,0,0,8.2-18.533a1,1,0,0,0-.267.733c-.333,0-.333.4-.267.6a29.122,29.122,0,0,0-2.333,4.533c0,.467-.267.8-.267,1.267a.724.724,0,0,0-.267.6l-.2.467c0,.2.067.467.267.467.267,0,1-1.733,1-2.067H6a.354.354,0,0,0,.4-.4c.667-.733.933-2.067,1.533-2.933.267,0,.2-.133.2-.333a.177.177,0,0,1,.2-.2c.067-.067.2-.6.333-.6v.533c0,.2-.067.333-.267.333a1.126,1.126,0,0,1-.2.667L7.667-13.6v.467c0,.2-.067.4-.267.4l-.267.6c-.4.2-.133.867-.533,1.067v1.133c.467,0,.533,0,.533-.467.467,0,.067-.533.533-.533,0-.333.667-1.533.933-1.533l.6-1.267a.667.667,0,0,0,.733-.733,4.831,4.831,0,0,0,.8-1.667Zm2.6,21.8c0,.067,0,.133.067.133.133,0,.6-.733.667-.867,0-.467.267-.8.267-1.267l.267-.333c0-.467.2-.733.2-1.067l.267-.133c0-.133.267-1.6.267-.933l.8-.067-.467-.4-.067-.2c0-.4.533-.067.533-.667v-.2L16.067-1v.333l-.267.2c0,.067-.067.2-.133.2s-.133-.467-.133-.533c0-.2.667-1.8.733-2-.467-.533-.533-2-1.533-2a.724.724,0,0,0-.6-.267l-.467.267L13-5l-.467.2a.315.315,0,0,0-.333-.333,2.537,2.537,0,0,0-1,.333c-.267,0-.267.133-.267.333a.177.177,0,0,1-.2.2c-.6-.333-1.2-.533-1.8-.8A1,1,0,0,0,8.2-5.333L7.667-5.6c0,.733-1,.733-1.467.8l-.067-.8c-.4,0-.467-.267-.8-.267a.605.605,0,0,0-.467-.2C4.8-6.067,4.8-6,4.8-5.933c0,.267-.2.467-.2.733l-.8.133c0,1.067-1.267,1.4-1.533,2.4C1.667-2.333.067.4-.267,1.2-.267,1.8-1,2.6-1,3.267l-.267.2V4c-.4.8-.733,1.6-1.067,2.4,0,.4-.2.467-.2.733-.4,0-.267.533-.267.8l-.533,1.2c0,.267-.267.4-.267.667,0,.067,0,.467.133.467s.133-.267.133-.333l.667-.2L-2.333,9c0-.533.533-.8.533-1.333C-1.733,7.6-.733,6.6-.733,7.133h.467V6.667L.2,6.4c.8,0,.333-.733.8-.733,0-.467.667-.267.933-.267l.333-.467.067.467A5.143,5.143,0,0,0,1.8,6.667c0,.467.2.8.2,1.267.067.067.133.2.2.2s.067-.133.067-.2L2.533,7.4c0-.6.533-.933.533-1.467.533,0,.533-.8,1.133-.8l1.4.533c.067-.067.133-.133.2-.133.2,0,.4.4.867.4C6.8,5.6,7.2,4.867,7.6,4.867A3.306,3.306,0,0,0,7.067,6.2c0,.2,1.467.467,1.733.467.067-.2.333-.267.533-.267V6.333c0-.267.267-.4.533-.4A4.929,4.929,0,0,1,9.2,7.4v.467c-.133.067-.333.267-.333.4s.067.267.2.267c.4,0,.733-.667.867-1,.333-.2.8-.533.8-.933,0-.067,0-.467.067-.467a2.865,2.865,0,0,1,.133.8A.606.606,0,0,0,11.6,6.4h.867c0-.267.067-1.267.467-1.267.733-1.533,1.4-3.2,2.133-4.733l.467-.333a7.032,7.032,0,0,1-1,2,.856.856,0,0,1-.267.667L13.8,3.867ZM24.2-29.8a.675.675,0,0,1-.467.267l-.267-.067c.067-.133.733-1.733.733-1.867l.533-.667c0-.4.267-.2.4,0l.133-.733.467.667c0,.133.067.4.267.333a.856.856,0,0,0-.267.667c0,.067,0,.333-.067.333-.133,0-.2-.2-.267-.267l-.667-.067c0,.133.267.8.467.8l.133-.2-.067.933h-.2c-.133,0-.333.067-.333.267l.267.6c-.333,0-.2.267-.533.267,0,.4,0,1-.533,1-.133,0-.467,0-.467-.2l.467-.667C23.933-28.867,24.2-29.333,24.2-29.8Zm-.733,8.6-.267.333a1.14,1.14,0,0,1-.467.867c0,.333-.267.533-.267.933l.2.467H23.2l.533-.933c0-.667.467-1.4.467-2l-.733-.4Zm3.067-16,.533.333a1.4,1.4,0,0,0-.267.733c-.333.333-.2.8-.2,1.267l-.267.467c-.133,0-.6,0-.533-.267A18.125,18.125,0,0,1,26.533-37.2ZM18.667-17.6v.267c0,.333.267.267.467.267v.733c.267,0,.467.467.6.467.4,0,.4-.667.4-1,0-.4-.267-.4-.267-.733-.333,0-.467.267-.733.267Zm3.8-11.133L23-28.2l-.533.667L22.4-26l-.6-.8c-.067,0-.133,0-.133-.133a.847.847,0,0,1,.267-.467C21.933-27.933,22.467-28.2,22.467-28.733ZM12.267.333l.467.2v.933c-.067.067-.267.133-.267.267s.267,0,.267.2a.567.567,0,0,1-.2.333c0,.067,0,.2-.067.2-.133,0-.4-.733-.467-.867C12,1.133,12.267.8,12.267.333ZM27.533-40.8l.533.267V-40l-.533.933-.2.067a.244.244,0,0,1-.267-.267V-39.8C27.6-39.8,27.533-40.4,27.533-40.8ZM13.267-21.667l.267.533-.533.4V-20l-.267.533-.2-.2v-1C12.533-21.267,13.267-21.467,13.267-21.667ZM13.8-1.533c.133.067.467.333.467.4,0,.133-.133.133-.2.133,0,1.133-.267.6-.267,1h-.2c-.133,0-.333-.067-.333-.267A4.26,4.26,0,0,1,13.8-1.533ZM11.2-17l.533-.467c0-.333.267-.4.267-.733.067-.133.267-.333.4-.333s.133.133.133.2c-.467,0-.267.667-.267.933l-.733.6v.133a.315.315,0,0,1-.333.333ZM10.467,8.067l-.267.267c0,.067.133.333.2.333s.067-.133.067-.133l.467-.2L11.2,8V7.467L10.467,7.4Zm7.4-24.133a.856.856,0,0,1-.267.667l.533.4c0-.267.267-.533.267-.8C18.333-16,18.067-16.067,17.867-16.067Zm6.6-7.8s0,.133.067.133a3.25,3.25,0,0,0,.2-.467c.067,0,.467,0,.467-.133,0-.333-.533-.4-.733-.4ZM17.6-4.067l-.267.6.267.533V-2.8c.133,0,.267-.733.267-.933C17.867-3.867,17.8-4.067,17.6-4.067ZM24.733-30.6c-.467,0-.533.467-.533.8C24.6-29.8,24.733-30.267,24.733-30.6ZM21.4-25.2l.533-.067v.533h-.2C21.4-24.733,21.4-24.933,21.4-25.2ZM14.067-2.467,14.8-2c-.267,0-.267.267-.6.267ZM11.2,4.933l.267.4v.533L11.2,5.6Zm2.333-27.067c.067,0,.067-.067.133-.067a.143.143,0,0,1,.133.133c0,.067,0,.2-.133.2C13.6-21.867,13.533-22.067,13.533-22.133Zm13-9.2.267.467c-.133,0-.267-.067-.267-.2Zm-.267.8A.233.233,0,0,0,26.4-30.6a.143.143,0,0,1,.133.133.143.143,0,0,1-.133.133C26.333-30.333,26.267-30.467,26.267-30.533ZM11.467,4.4l.267.067c0,.067,0,.2-.133.2C11.533,4.667,11.467,4.467,11.467,4.4Zm-5.6.533L6.133,5c0,.067,0,.2-.133.2C5.933,5.2,5.867,5,5.867,4.933ZM26-32.333l.267.067c0,.067,0,.2-.133.2C26.067-32.067,26-32.267,26-32.333Zm1.067-2.8h.067c.133,0,.2,0,.2.133h-.067C27.133-35,27.067-35,27.067-35.133ZM20.933-24.667H21c.133,0,.2,0,.2.133h-.067C21-24.533,20.933-24.533,20.933-24.667Z" transform="translate(159 434)"/>
  </g>
</svg>
