<svg xmlns="http://www.w3.org/2000/svg" width="229.151" height="193.623" viewBox="0 0 229.151 193.623">
  <g id="Group_7" data-name="Group 7" transform="translate(-73.385 -236.581)">
    <g id="bkk_bus" transform="translate(213.53 88.399) rotate(25)">
      <path id="Path_8" data-name="Path 8" d="M243.377,229.13a4.06,4.06,0,0,1-4.047,4.047H210.077c-2.225,0-3.281-1.654-2.36-3.685l3.691-8.095a6.843,6.843,0,0,1,5.714-3.67h22.206a4.056,4.056,0,0,1,4.047,4.047v7.355Zm-56.2-88.581h47.75a8.127,8.127,0,0,1,8.283,7.961v54.346a8.108,8.108,0,0,1-8.283,7.947h-47.75Zm0-21.4h51.966a4.046,4.046,0,0,1,4.04,4.047v4.457a4.052,4.052,0,0,1-4.04,4.055H206.124l-18.948-.027h0Zm55.885-10.986H187.176l4.737,2.536-4.737,8.45v12.532l-3.488,4.366,3.488,4.5V210.8l-6.928,10.6,11.431,10.064-4.5,10.415h35.333V253.2a3.059,3.059,0,0,0,3.053,3.052h10.051a3.059,3.059,0,0,0,3.052-3.052V241.877h4.4a12.521,12.521,0,0,0,12.72-12.29V120.474a12.522,12.522,0,0,0-12.721-12.31" transform="translate(-99 17.451)" fill="#90d8e0"/>
    </g>
    <path id="Path_10" data-name="Path 10" d="M138.486,210.982a8.13,8.13,0,0,1-8.3-7.961V148.58a8.151,8.151,0,0,1,8.3-7.974h60.6v70.377h-60.6ZM163.473,233.4h-29.3a4.067,4.067,0,0,1-4.054-4.054v-7.368a4.057,4.057,0,0,1,4.048-4.054h22.252a6.884,6.884,0,0,1,5.732,3.677l3.684,8.109c.936,2.034-.135,3.691-2.364,3.691M130.027,123.223a4.068,4.068,0,0,1,4.055-4.054H199.09v21.437l-3.429-4.4,3.429-4.452H134.082a4.074,4.074,0,0,1-4.055-4.062v-4.465Zm69.063-4.054,4.959-8.284-4.959-2.721H130.324A12.532,12.532,0,0,0,117.608,120.5V229.8a12.533,12.533,0,0,0,12.716,12.311h4.432v11.342a3.064,3.064,0,0,0,3.058,3.058h10.068a3.064,3.064,0,0,0,3.058-3.058V242.111H199.09l4.658-10.586L191.873,221.6l7.217-10.614" transform="matrix(0.985, -0.174, 0.174, 0.985, -49.219, 198.013)" fill="#90d8e0"/>
    <g id="bkk_bus-2" data-name="bkk_bus" transform="translate(201.53 88.399) rotate(25)">
      <path id="Path_8-2" data-name="Path 8" d="M243.377,229.13a4.06,4.06,0,0,1-4.047,4.047H210.077c-2.225,0-3.281-1.654-2.36-3.685l3.691-8.095a6.843,6.843,0,0,1,5.714-3.67h22.206a4.056,4.056,0,0,1,4.047,4.047v7.355Zm-56.2-88.581h47.75a8.127,8.127,0,0,1,8.283,7.961v54.346a8.108,8.108,0,0,1-8.283,7.947h-47.75Zm0-21.4h51.966a4.046,4.046,0,0,1,4.04,4.047v4.457a4.052,4.052,0,0,1-4.04,4.055H206.124l-18.948-.027h0Zm55.885-10.986H187.176l4.737,2.536-4.737,8.45v12.532l-3.488,4.366,3.488,4.5V210.8l-6.928,10.6,11.431,10.064-4.5,10.415h35.333V253.2a3.059,3.059,0,0,0,3.053,3.052h10.051a3.059,3.059,0,0,0,3.052-3.052V241.877h4.4a12.521,12.521,0,0,0,12.72-12.29V120.474a12.522,12.522,0,0,0-12.721-12.31" transform="translate(-99 17.451)" fill="#ab5451"/>
    </g>
    <path id="Path_9" data-name="Path 9" d="M138.486,210.982a8.13,8.13,0,0,1-8.3-7.961V148.58a8.151,8.151,0,0,1,8.3-7.974h60.6v70.377h-60.6ZM163.473,233.4h-29.3a4.067,4.067,0,0,1-4.054-4.054v-7.368a4.057,4.057,0,0,1,4.048-4.054h22.252a6.884,6.884,0,0,1,5.732,3.677l3.684,8.109c.936,2.034-.135,3.691-2.364,3.691M130.027,123.223a4.068,4.068,0,0,1,4.055-4.054H199.09v21.437l-3.429-4.4,3.429-4.452H134.082a4.074,4.074,0,0,1-4.055-4.062v-4.465Zm69.063-4.054,4.959-8.284-4.959-2.721H130.324A12.532,12.532,0,0,0,117.608,120.5V229.8a12.533,12.533,0,0,0,12.716,12.311h4.432v11.342a3.064,3.064,0,0,0,3.058,3.058h10.068a3.064,3.064,0,0,0,3.058-3.058V242.111H199.09l4.658-10.586L191.873,221.6l7.217-10.614" transform="matrix(0.985, -0.174, 0.174, 0.985, -61.219, 198.013)" fill="#ab5451"/>
    <g id="bkk_bus-3" data-name="bkk_bus" transform="translate(207.53 88.399) rotate(25)">
      <path id="Path_8-3" data-name="Path 8" d="M243.377,229.13a4.06,4.06,0,0,1-4.047,4.047H210.077c-2.225,0-3.281-1.654-2.36-3.685l3.691-8.095a6.843,6.843,0,0,1,5.714-3.67h22.206a4.056,4.056,0,0,1,4.047,4.047v7.355Zm-56.2-88.581h47.75a8.127,8.127,0,0,1,8.283,7.961v54.346a8.108,8.108,0,0,1-8.283,7.947h-47.75Zm0-21.4h51.966a4.046,4.046,0,0,1,4.04,4.047v4.457a4.052,4.052,0,0,1-4.04,4.055H206.124l-18.948-.027h0Zm55.885-10.986H187.176l4.737,2.536-4.737,8.45v12.532l-3.488,4.366,3.488,4.5V210.8l-6.928,10.6,11.431,10.064-4.5,10.415h35.333V253.2a3.059,3.059,0,0,0,3.053,3.052h10.051a3.059,3.059,0,0,0,3.052-3.052V241.877h4.4a12.521,12.521,0,0,0,12.72-12.29V120.474a12.522,12.522,0,0,0-12.721-12.31" transform="translate(-99 17.451)" fill="#fff"/>
    </g>
    <path id="Path_6" data-name="Path 6" d="M138.486,210.982a8.13,8.13,0,0,1-8.3-7.961V148.58a8.151,8.151,0,0,1,8.3-7.974h60.6v70.377h-60.6ZM163.473,233.4h-29.3a4.067,4.067,0,0,1-4.054-4.054v-7.368a4.057,4.057,0,0,1,4.048-4.054h22.252a6.884,6.884,0,0,1,5.732,3.677l3.684,8.109c.936,2.034-.135,3.691-2.364,3.691M130.027,123.223a4.068,4.068,0,0,1,4.055-4.054H199.09v21.437l-3.429-4.4,3.429-4.452H134.082a4.074,4.074,0,0,1-4.055-4.062v-4.465Zm69.063-4.054,4.959-8.284-4.959-2.721H130.324A12.532,12.532,0,0,0,117.608,120.5V229.8a12.533,12.533,0,0,0,12.716,12.311h4.432v11.342a3.064,3.064,0,0,0,3.058,3.058h10.068a3.064,3.064,0,0,0,3.058-3.058V242.111H199.09l4.658-10.586L191.873,221.6l7.217-10.614" transform="matrix(0.985, -0.174, 0.174, 0.985, -55.219, 198.013)" fill="#fff"/>
  </g>
</svg>
